<svg width="1149" height="970" viewBox="0 0 1149 970" fill="none" xmlns="http://www.w3.org/2000/svg">
<path d="M487 543.45V617.942L601.602 598.068L623.44 594.281L571.042 589.291V574.011L725.754 549.18H764.91H804.066L817.436 560.64V467.049L779.235 475.881L691.374 496.196L666.543 501.937L588.232 520.044L568.255 524.663L506.1 539.034L487 543.45Z" fill="#D0D2E1"/>
<path d="M1147.87 617.942V543.45L1130.68 539.475L1069.56 525.343L1048.74 520.53L970.239 502.379L945.409 496.638L849.907 474.556L817.436 467.049V560.64L849.907 566.271L945.409 582.832L970.239 587.138L1048.74 600.751L1063.83 603.368L1130.68 614.961L1147.87 617.942Z" fill="#D0D2E1"/>
<path d="M817.436 358.177V270.315L783.056 282.438L691.374 314.765L666.543 323.52L588.232 351.133L568.255 358.177L487 386.827V457.499L506.1 451.757L568.255 433.075L588.232 427.07L666.543 403.532L689.464 396.642L779.235 369.659L817.436 358.177Z" fill="#D0D2E1"/>
<path d="M817.436 270.315V358.177L849.907 367.937L945.409 396.642L970.239 404.106L1048.74 427.702L1069.56 433.96L1130.68 452.332L1147.87 457.499V381.097L1130.68 375.334L1065.74 353.562L1048.74 347.862L970.239 321.544L945.409 313.219L849.907 281.201L817.436 270.315Z" fill="#D0D2E1"/>
<path d="M1147.87 297.056V228.294L907.208 111.44L886.197 101.238L872.827 94.7463L855.637 86.3996L817.436 67.8512V161.443L849.907 174.769L945.409 213.963L970.239 224.154L1048.74 256.372L1065.74 263.348L1130.68 290.001L1147.87 297.056Z" fill="#D0D2E1"/>
<path d="M487 228.294V297.056L571.042 262.564L588.232 255.51L666.543 223.37L691.374 213.18L783.056 175.553L817.436 161.443V67.8512L704.744 122.569L691.374 129.061L605.422 170.794L589.187 178.677L487 228.294Z" fill="#D0D2E1"/>
<path d="M487 617.942V694.343L601.602 686.6V598.068L487 617.942Z" fill="#154667"/>
<path d="M945.409 677.959V582.832L849.907 566.271V670.23L945.409 677.959Z" fill="#154667"/>
<path d="M1048.74 686.321V600.751L970.239 587.138V679.968L1048.74 686.321Z" fill="#154667"/>
<path d="M1130.68 692.952V614.961L1063.83 603.368V687.542L1130.68 692.952Z" fill="#154667"/>
<path d="M1069.56 433.96V525.343L1130.68 539.475V452.332L1069.56 433.96Z" fill="#154667"/>
<path d="M1048.74 520.53V427.702L970.239 404.106V502.379L1048.74 520.53Z" fill="#154667"/>
<path d="M945.409 496.638V396.642L849.907 367.937V474.556L945.409 496.638Z" fill="#154667"/>
<path d="M689.464 396.642L691.374 496.196L779.235 475.881V369.659L689.464 396.642Z" fill="#154667"/>
<path d="M666.543 501.937V403.532L588.232 427.07V520.044L666.543 501.937Z" fill="#154667"/>
<path d="M568.255 524.663V433.075L506.1 451.757V539.034L568.255 524.663Z" fill="#154667"/>
<path d="M487 297.056V386.827L568.255 358.177L571.042 262.564L487 297.056Z" fill="#154667"/>
<path d="M588.232 255.51V351.133L666.543 323.52V223.37L588.232 255.51Z" fill="#154667"/>
<path d="M691.374 213.18V314.765L783.056 282.438V175.553L691.374 213.18Z" fill="#154667"/>
<path d="M849.907 174.769V281.201L945.409 313.219V213.963L849.907 174.769Z" fill="#154667"/>
<path d="M970.239 224.154V321.544L1048.74 347.862V256.372L970.239 224.154Z" fill="#154667"/>
<path d="M1065.74 263.348V353.562L1130.68 375.334V290.001L1065.74 263.348Z" fill="#154667"/>
<path d="M817.436 763.104V816.585H1130.68V775.779L817.436 763.104Z" fill="#334654"/>
<path d="M588.232 816.585V795.575H611.152V772.654L509.92 776.474V816.585H588.232Z" fill="#334654"/>
<path fill-rule="evenodd" clip-rule="evenodd" d="M817.436 763.104H790.696H788.786V816.585H817.436V763.104Z" fill="#334654"/>
<path d="M817.436 667.602V763.104L1130.68 775.779L1147.87 776.474V694.343L1130.68 692.952L1063.83 687.542L1048.74 686.321L970.239 679.968L945.409 677.959L849.907 670.23L817.436 667.602Z" fill="#D0D2E1"/>
<path fill-rule="evenodd" clip-rule="evenodd" d="M746.765 619.095L689.464 625.582L691.374 600.751L628.343 594.748V593.431L790.696 565.278V614.121L746.765 619.095Z" fill="#324049"/>
<path d="M689.464 763.104V625.582L691.374 600.751L628.343 594.748V684.793V766.924H762.045L788.786 763.104H746.765H689.464Z" fill="#FCFCFF"/>
<path d="M804.066 562.959L817.436 560.64L804.066 549.18H764.91H725.754L729.575 560.64L804.066 562.959Z" fill="#FFFEFF"/>
<path d="M571.042 589.291L729.575 560.64L725.754 549.18L571.042 574.011V589.291Z" fill="#FFFEFF"/>
<path d="M788.786 763.104L762.045 766.924L758.225 795.575H733.395V816.585H788.786V763.104Z" fill="#D1D3E1"/>
<path d="M817.436 560.64V667.602L849.907 670.23V566.271L817.436 560.64Z" fill="#324049"/>
<path d="M817.436 667.602V560.64L804.066 562.959L790.696 565.278V614.121V667.602H817.436Z" fill="#324049"/>
<path d="M970.239 679.968V587.138L945.409 582.832V677.959L970.239 679.968Z" fill="#324049"/>
<path d="M1063.83 687.542V603.368L1048.74 600.751V686.321L1063.83 687.542Z" fill="#324049"/>
<path d="M1147.87 694.343V617.942L1130.68 614.961V692.952L1147.87 694.343Z" fill="#324049"/>
<path d="M601.602 686.6L628.343 684.793V594.748L623.44 594.281L601.602 598.068V686.6Z" fill="#324049"/>
<path d="M817.436 467.049V358.177L779.235 369.659V475.881L817.436 467.049Z" fill="#324049"/>
<path d="M817.436 358.177V467.049L849.907 474.556V367.937L817.436 358.177Z" fill="#324049"/>
<path d="M1048.74 256.372V347.862L1065.74 353.562V263.348L1048.74 256.372Z" fill="#324049"/>
<path d="M1147.87 381.097V297.056L1130.68 290.001V375.334L1147.87 381.097Z" fill="#324049"/>
<path d="M1147.87 543.45V457.499L1130.68 452.332V539.475L1147.87 543.45Z" fill="#324049"/>
<path d="M1048.74 427.702V520.53L1069.56 525.343V433.96L1048.74 427.702Z" fill="#324049"/>
<path d="M945.409 396.642V496.638L970.239 502.379V404.106L945.409 396.642Z" fill="#324049"/>
<path d="M691.374 496.196L689.464 396.642L666.543 403.532V501.937L691.374 496.196Z" fill="#324049"/>
<path d="M568.255 433.075V524.663L588.232 520.044V427.07L568.255 433.075Z" fill="#324049"/>
<path d="M487 457.499V543.45L506.1 539.034V451.757L487 457.499Z" fill="#324049"/>
<path d="M571.042 262.564L568.255 358.177L588.232 351.133V255.51L571.042 262.564Z" fill="#324049"/>
<path d="M666.543 223.37V323.52L691.374 314.765V213.18L666.543 223.37Z" fill="#324049"/>
<path d="M817.436 270.315V161.443L783.056 175.553V282.438L817.436 270.315Z" fill="#324049"/>
<path d="M817.436 161.443V270.315L849.907 281.201V174.769L817.436 161.443Z" fill="#324049"/>
<path d="M945.409 213.963V313.219L970.239 321.544V224.154L945.409 213.963Z" fill="#324049"/>
<path d="M691.374 109.872L704.744 104.142L731.485 90.7717L714.294 85.0416L563.401 161.443L578.682 169.083L588.232 161.443L589.187 178.677L605.422 170.794V155.713L691.374 109.872Z" fill="#3A545F"/>
<path d="M691.374 109.872V129.061L704.744 122.569V104.142L691.374 109.872Z" fill="#3A545F"/>
<path d="M714.294 85.0416L731.485 90.7717V25.8305H714.294V85.0416Z" fill="#CAD1DB"/>
<path d="M872.827 1H855.637V86.3996L872.827 94.7463V1Z" fill="#D0D2E1"/>
<path d="M886.197 48.7509V101.238L907.208 111.44V48.7509H886.197Z" fill="#D0D2E1"/>
<path d="M563.401 161.443L714.294 85.0416V25.8305L563.401 104.142V161.443Z" fill="#EBECF1"/>
<path d="M487 694.343V816.585H509.92V776.474L611.152 772.654V766.924H628.343V684.793L601.602 686.6L487 694.343Z" fill="#D0D2E1"/>
<path d="M689.464 625.582V763.104H746.765V619.095L689.464 625.582Z" fill="#154667"/>
<path d="M788.786 763.104L790.696 614.121L746.765 619.095V763.104H788.786Z" fill="#154667"/>
<path d="M790.696 614.121L788.786 763.104H790.696H817.436V667.602H790.696V614.121Z" fill="#D0D2E1"/>
<path d="M628.343 593.431L790.696 565.278L804.066 562.959L729.575 560.64L571.042 589.291L623.44 594.281L628.343 593.431Z" fill="#FCFCFF"/>
<path d="M1147.87 816.585V776.474L1130.68 775.779V816.585H1147.87Z" fill="#D0D2E1"/>
<path d="M762.045 766.924H628.343H611.152V772.654V795.575H733.395H758.225L762.045 766.924Z" fill="#D0D2E1"/>
<path d="M588.232 795.575V816.585H733.395V795.575H611.152H588.232Z" fill="#D0D2E1"/>
<path d="M487 297.056V228.294M487 297.056L571.042 262.564M487 297.056V386.827M817.436 161.443V67.8512M817.436 161.443V816.585M817.436 161.443L849.907 174.769M817.436 161.443L783.056 175.553M817.436 161.443V270.315M1147.87 297.056V228.294M1147.87 297.056L1130.68 290.001M1147.87 297.056V381.097M1147.87 228.294V816.585M1147.87 228.294L907.208 111.44M817.436 67.8512L704.744 122.569M817.436 67.8512L855.637 86.3996M487 228.294V617.942M487 228.294L589.187 178.677M817.436 270.315V358.177M817.436 270.315L849.907 281.201M817.436 270.315L783.056 282.438M817.436 358.177L849.907 367.937M817.436 358.177L779.235 369.659M817.436 358.177V467.049M1147.87 457.499V381.097M1147.87 457.499L1130.68 452.332M1147.87 457.499V543.45M1147.87 381.097L1130.68 375.334M487 386.827V457.499M487 386.827L568.255 358.177M487 457.499L506.1 451.757M487 457.499V543.45M487 617.942V543.45M487 617.942V694.343M487 617.942L601.602 598.068M817.436 560.64V667.602M817.436 560.64L849.907 566.271M817.436 560.64L804.066 562.959M817.436 560.64L804.066 549.18H764.91H725.754M817.436 560.64V467.049M1147.87 617.942V543.45M1147.87 617.942V694.343M1147.87 617.942L1130.68 614.961M1147.87 543.45L1130.68 539.475M817.436 467.049L849.907 474.556M817.436 467.049L779.235 475.881M487 543.45L506.1 539.034M817.436 816.585V763.104M817.436 816.585H788.786M817.436 816.585H1130.68M1147.87 816.585V776.474M1147.87 816.585H1130.68M689.464 625.582V763.104H746.765M689.464 625.582L746.765 619.095M689.464 625.582L691.374 600.751L628.343 594.748M788.786 763.104L790.696 614.121M788.786 763.104H746.765M788.786 763.104L762.045 766.924M788.786 763.104V816.585M788.786 763.104H817.436M788.786 763.104H790.696H817.436M790.696 614.121L746.765 619.095M790.696 614.121V667.602M790.696 614.121V565.278M746.765 763.104V619.095M790.696 667.602H817.436M790.696 667.602V565.278M817.436 667.602V763.104M817.436 667.602L849.907 670.23M1147.87 694.343V776.474M1147.87 694.343L1130.68 692.952M817.436 763.104L1130.68 775.779M1147.87 776.474L1130.68 775.779M487 694.343V816.585H509.92M487 694.343L601.602 686.6M628.343 684.793V766.924M628.343 684.793L601.602 686.6M628.343 684.793V594.748M628.343 593.431L790.696 565.278M628.343 593.431L623.44 594.281M628.343 593.431V594.748M628.343 766.924H762.045M628.343 766.924H611.152M762.045 766.924L758.225 795.575H733.395M762.045 766.924H611.152M788.786 816.585H733.395M588.232 816.585V795.575H611.152M588.232 816.585H733.395M588.232 816.585H509.92M733.395 795.575V816.585M733.395 795.575H611.152M611.152 766.924V772.654M611.152 795.575V772.654M571.042 262.564L568.255 358.177M571.042 262.564L588.232 255.51M568.255 358.177L588.232 351.133M588.232 255.51V351.133M588.232 255.51L666.543 223.37M588.232 351.133L666.543 323.52M666.543 223.37V323.52M666.543 223.37L691.374 213.18M666.543 323.52L691.374 314.765M691.374 213.18V314.765M691.374 213.18L783.056 175.553M691.374 314.765L783.056 282.438M691.374 496.196L689.464 396.642M691.374 496.196L666.543 501.937M691.374 496.196L779.235 475.881M689.464 396.642L666.543 403.532M689.464 396.642L779.235 369.659M666.543 501.937V403.532M666.543 501.937L588.232 520.044M666.543 403.532L588.232 427.07M568.255 524.663V433.075M568.255 524.663L588.232 520.044M568.255 524.663L506.1 539.034M568.255 433.075L588.232 427.07M568.255 433.075L506.1 451.757M588.232 520.044V427.07M506.1 539.034V451.757M1048.74 520.53V427.702M1048.74 520.53L1069.56 525.343M1048.74 520.53L970.239 502.379M1048.74 427.702L1069.56 433.96M1048.74 427.702L970.239 404.106M1069.56 525.343V433.96M1069.56 525.343L1130.68 539.475M1069.56 433.96L1130.68 452.332M945.409 496.638V396.642M945.409 496.638L970.239 502.379M945.409 496.638L849.907 474.556M945.409 396.642L970.239 404.106M945.409 396.642L849.907 367.937M970.239 502.379V404.106M849.907 474.556V367.937M779.235 369.659V475.881M849.907 281.201V174.769M849.907 281.201L945.409 313.219M849.907 174.769L945.409 213.963M783.056 175.553V282.438M945.409 313.219V213.963M945.409 313.219L970.239 321.544M945.409 213.963L970.239 224.154M970.239 321.544V224.154M970.239 321.544L1048.74 347.862M970.239 224.154L1048.74 256.372M1048.74 347.862V256.372M1048.74 347.862L1065.74 353.562M1048.74 256.372L1065.74 263.348M1065.74 353.562V263.348M1065.74 353.562L1130.68 375.334M1065.74 263.348L1130.68 290.001M1130.68 375.334V290.001M1130.68 539.475V452.332M1130.68 692.952V614.961M1130.68 692.952L1063.83 687.542M1130.68 614.961L1063.83 603.368M1063.83 687.542V603.368M1063.83 687.542L1048.74 686.321M1063.83 603.368L1048.74 600.751M1048.74 686.321V600.751M1048.74 686.321L970.239 679.968M1048.74 600.751L970.239 587.138M970.239 679.968V587.138M970.239 679.968L945.409 677.959M970.239 587.138L945.409 582.832M945.409 677.959V582.832M945.409 677.959L849.907 670.23M945.409 582.832L849.907 566.271M849.907 670.23V566.271M790.696 565.278L804.066 562.959M571.042 589.291L729.575 560.64M571.042 589.291V574.011L725.754 549.18M571.042 589.291L623.44 594.281M729.575 560.64L804.066 562.959M729.575 560.64L725.754 549.18M509.92 816.585V776.474L611.152 772.654M1130.68 775.779V816.585M601.602 686.6V598.068M601.602 598.068L623.44 594.281M691.374 129.061V109.872M691.374 129.061L704.744 122.569M691.374 129.061L605.422 170.794M691.374 109.872L704.744 104.142M691.374 109.872L605.422 155.713V170.794M704.744 104.142V122.569M704.744 104.142L731.485 90.7717M731.485 90.7717L714.294 85.0416M731.485 90.7717V25.8305H714.294M714.294 85.0416L563.401 161.443M714.294 85.0416V25.8305M563.401 161.443L578.682 169.083L588.232 161.443L589.187 178.677M563.401 161.443V104.142L714.294 25.8305M589.187 178.677L605.422 170.794M886.197 101.238V48.7509H907.208V111.44M886.197 101.238L907.208 111.44M886.197 101.238L872.827 94.7463M872.827 94.7463V1H855.637V86.3996M872.827 94.7463L855.637 86.3996M623.44 594.281L628.343 594.748" stroke="#1E1E1E"/>
<path d="M661.872 695.45V769.942L547.27 750.068L525.432 746.281L577.831 741.291V726.011L423.118 701.18H383.962H344.806L331.436 712.64V619.049L369.637 627.881L457.499 648.196L482.329 653.937L560.64 672.044L580.618 676.663L642.772 691.034L661.872 695.45Z" fill="#D0D2E1"/>
<path d="M1 769.942V695.45L18.1903 691.475L79.3115 677.343L100.131 672.53L178.633 654.379L203.464 648.638L298.966 626.556L331.436 619.049V712.64L298.966 718.271L203.464 734.832L178.633 739.138L100.131 752.751L85.0416 755.368L18.1903 766.961L1 769.942Z" fill="#D0D2E1"/>
<path d="M331.436 510.177V422.315L365.817 434.438L457.499 466.765L482.329 475.52L560.64 503.133L580.618 510.177L661.872 538.827V609.499L642.772 603.757L580.618 585.075L560.64 579.07L482.329 555.532L459.409 548.642L369.637 521.659L331.436 510.177Z" fill="#D0D2E1"/>
<path d="M331.436 422.315V510.177L298.966 519.937L203.464 548.642L178.633 556.106L100.131 579.702L79.3115 585.96L18.1903 604.332L1 609.499V533.097L18.1903 527.334L83.1315 505.562L100.131 499.862L178.633 473.544L203.464 465.219L298.966 433.201L331.436 422.315Z" fill="#D0D2E1"/>
<path d="M1 449.056V380.294L241.665 263.44L262.675 253.238L276.045 246.746L293.235 238.4L331.436 219.851V313.443L298.966 326.769L203.464 365.963L178.633 376.154L100.131 408.372L83.1315 415.348L18.1903 442.001L1 449.056Z" fill="#D0D2E1"/>
<path d="M661.872 380.294V449.056L577.831 414.564L560.64 407.51L482.329 375.37L457.499 365.18L365.817 327.553L331.436 313.443V219.851L444.128 274.569L457.499 281.061L543.45 322.794L559.685 330.677L661.872 380.294Z" fill="#D0D2E1"/>
<path d="M661.872 769.942V846.343L547.27 838.6V750.068L661.872 769.942Z" fill="#154667"/>
<path d="M203.464 829.959V734.832L298.966 718.271V822.23L203.464 829.959Z" fill="#154667"/>
<path d="M100.131 838.321V752.751L178.633 739.138V831.968L100.131 838.321Z" fill="#154667"/>
<path d="M18.1903 844.952V766.961L85.0416 755.368V839.542L18.1903 844.952Z" fill="#154667"/>
<path d="M79.3115 585.96V677.343L18.1903 691.475V604.332L79.3115 585.96Z" fill="#154667"/>
<path d="M100.131 672.53V579.702L178.633 556.106V654.379L100.131 672.53Z" fill="#154667"/>
<path d="M203.464 648.638V548.642L298.966 519.937V626.556L203.464 648.638Z" fill="#154667"/>
<path d="M459.409 548.642L457.499 648.196L369.637 627.881V521.659L459.409 548.642Z" fill="#154667"/>
<path d="M482.329 653.937V555.532L560.64 579.07V672.044L482.329 653.937Z" fill="#154667"/>
<path d="M580.618 676.663V585.075L642.772 603.757V691.034L580.618 676.663Z" fill="#154667"/>
<path d="M661.872 449.056V538.827L580.618 510.177L577.831 414.564L661.872 449.056Z" fill="#154667"/>
<path d="M560.64 407.51V503.133L482.329 475.52V375.37L560.64 407.51Z" fill="#154667"/>
<path d="M457.499 365.18V466.765L365.817 434.438V327.553L457.499 365.18Z" fill="#154667"/>
<path d="M298.966 326.769V433.201L203.464 465.219V365.963L298.966 326.769Z" fill="#154667"/>
<path d="M178.633 376.154V473.544L100.131 499.862V408.372L178.633 376.154Z" fill="#154667"/>
<path d="M83.1315 415.348V505.562L18.1903 527.334V442.001L83.1315 415.348Z" fill="#154667"/>
<path d="M331.436 915.104V968.585H18.1903V927.779L331.436 915.104Z" fill="#334654"/>
<path d="M560.64 968.585V947.575H537.72V924.654L638.952 928.474V968.585H560.64Z" fill="#334654"/>
<path fill-rule="evenodd" clip-rule="evenodd" d="M331.436 915.104H358.177H360.087V968.585H331.436V915.104Z" fill="#334654"/>
<path d="M331.436 819.602V915.104L18.1903 927.779L1 928.474V846.343L18.1903 844.952L85.0416 839.542L100.131 838.321L178.633 831.968L203.464 829.959L298.966 822.23L331.436 819.602Z" fill="#D0D2E1"/>
<path fill-rule="evenodd" clip-rule="evenodd" d="M402.108 771.095L459.409 777.582L457.499 752.751L520.53 746.748V745.431L358.177 717.278V766.121L402.108 771.095Z" fill="#324049"/>
<path d="M459.409 915.104V777.582L457.499 752.751L520.53 746.748V836.793V918.924H386.827L360.087 915.104H402.108H459.409Z" fill="#FCFCFF"/>
<path d="M344.806 714.959L331.436 712.64L344.806 701.18H383.962H423.118L419.298 712.64L344.806 714.959Z" fill="#FFFEFF"/>
<path d="M577.831 741.291L419.298 712.64L423.118 701.18L577.831 726.011V741.291Z" fill="#FFFEFF"/>
<path d="M360.087 915.104L386.827 918.924L390.647 947.575H415.478V968.585H360.087V915.104Z" fill="#D1D3E1"/>
<path d="M331.436 712.64V819.602L298.966 822.23V718.271L331.436 712.64Z" fill="#324049"/>
<path d="M331.436 819.602V712.64L344.806 714.959L358.177 717.278V766.121V819.602H331.436Z" fill="#324049"/>
<path d="M178.633 831.968V739.138L203.464 734.832V829.959L178.633 831.968Z" fill="#324049"/>
<path d="M85.0416 839.542V755.368L100.131 752.751V838.321L85.0416 839.542Z" fill="#324049"/>
<path d="M1 846.343V769.942L18.1903 766.961V844.952L1 846.343Z" fill="#324049"/>
<path d="M547.27 838.6L520.53 836.793V746.748L525.432 746.281L547.27 750.068V838.6Z" fill="#324049"/>
<path d="M331.436 619.049V510.177L369.637 521.659V627.881L331.436 619.049Z" fill="#324049"/>
<path d="M331.436 510.177V619.049L298.966 626.556V519.937L331.436 510.177Z" fill="#324049"/>
<path d="M100.131 408.372V499.862L83.1315 505.562V415.348L100.131 408.372Z" fill="#324049"/>
<path d="M1 533.097V449.056L18.1903 442.001V527.334L1 533.097Z" fill="#324049"/>
<path d="M1 695.45V609.499L18.1903 604.332V691.475L1 695.45Z" fill="#324049"/>
<path d="M100.131 579.702V672.53L79.3115 677.343V585.96L100.131 579.702Z" fill="#324049"/>
<path d="M203.464 548.642V648.638L178.633 654.379V556.106L203.464 548.642Z" fill="#324049"/>
<path d="M457.499 648.196L459.409 548.642L482.329 555.532V653.937L457.499 648.196Z" fill="#324049"/>
<path d="M580.618 585.075V676.663L560.64 672.044V579.07L580.618 585.075Z" fill="#324049"/>
<path d="M661.872 609.499V695.45L642.772 691.034V603.757L661.872 609.499Z" fill="#324049"/>
<path d="M577.831 414.564L580.618 510.177L560.64 503.133V407.51L577.831 414.564Z" fill="#324049"/>
<path d="M482.329 375.37V475.52L457.499 466.765V365.18L482.329 375.37Z" fill="#324049"/>
<path d="M331.436 422.315V313.443L365.817 327.553V434.438L331.436 422.315Z" fill="#324049"/>
<path d="M331.436 313.443V422.315L298.966 433.201V326.769L331.436 313.443Z" fill="#324049"/>
<path d="M203.464 365.963V465.219L178.633 473.544V376.154L203.464 365.963Z" fill="#324049"/>
<path d="M457.499 261.872L444.128 256.142L417.388 242.772L434.578 237.042L585.471 313.443L570.191 321.083L560.64 313.443L559.685 330.677L543.45 322.794V307.713L457.499 261.872Z" fill="#3A545F"/>
<path d="M457.499 261.872V281.061L444.128 274.569V256.142L457.499 261.872Z" fill="#3A545F"/>
<path d="M434.578 237.042L417.388 242.772V177.83H434.578V237.042Z" fill="#CAD1DB"/>
<path d="M276.045 153H293.235V238.4L276.045 246.746V153Z" fill="#D0D2E1"/>
<path d="M262.675 200.751V253.238L241.665 263.44V200.751H262.675Z" fill="#D0D2E1"/>
<path d="M585.471 313.443L434.578 237.042V177.83L585.471 256.142V313.443Z" fill="#EBECF1"/>
<path d="M661.872 846.343V968.585H638.952V928.474L537.72 924.654V918.924H520.53V836.793L547.27 838.6L661.872 846.343Z" fill="#D0D2E1"/>
<path d="M459.409 777.582V915.104H402.108V771.095L459.409 777.582Z" fill="#154667"/>
<path d="M360.087 915.104L358.177 766.121L402.108 771.095V915.104H360.087Z" fill="#154667"/>
<path d="M358.177 766.121L360.087 915.104H358.177H331.436V819.602H358.177V766.121Z" fill="#D0D2E1"/>
<path d="M520.53 745.431L358.177 717.278L344.806 714.959L419.298 712.64L577.831 741.291L525.432 746.281L520.53 745.431Z" fill="#FCFCFF"/>
<path d="M1 968.585V928.474L18.1903 927.779V968.585H1Z" fill="#D0D2E1"/>
<path d="M386.827 918.924H520.53H537.72V924.654V947.575H415.478H390.647L386.827 918.924Z" fill="#D0D2E1"/>
<path d="M560.64 947.575V968.585H415.478V947.575H537.72H560.64Z" fill="#D0D2E1"/>
<path d="M661.872 449.056V380.294M661.872 449.056L577.831 414.564M661.872 449.056V538.827M331.436 313.443V219.851M331.436 313.443V968.585M331.436 313.443L298.966 326.769M331.436 313.443L365.817 327.553M331.436 313.443V422.315M1 449.056V380.294M1 449.056L18.1903 442.001M1 449.056V533.097M1 380.294V968.585M1 380.294L241.665 263.44M331.436 219.851L444.128 274.569M331.436 219.851L293.235 238.4M661.872 380.294V769.942M661.872 380.294L559.685 330.677M331.436 422.315V510.177M331.436 422.315L298.966 433.201M331.436 422.315L365.817 434.438M331.436 510.177L298.966 519.937M331.436 510.177L369.637 521.659M331.436 510.177V619.049M1 609.499V533.097M1 609.499L18.1903 604.332M1 609.499V695.45M1 533.097L18.1903 527.334M661.872 538.827V609.499M661.872 538.827L580.618 510.177M661.872 609.499L642.772 603.757M661.872 609.499V695.45M661.872 769.942V695.45M661.872 769.942V846.343M661.872 769.942L547.27 750.068M331.436 712.64V819.602M331.436 712.64L298.966 718.271M331.436 712.64L344.806 714.959M331.436 712.64L344.806 701.18H383.962H423.118M331.436 712.64V619.049M1 769.942V695.45M1 769.942V846.343M1 769.942L18.1903 766.961M1 695.45L18.1903 691.475M331.436 619.049L298.966 626.556M331.436 619.049L369.637 627.881M661.872 695.45L642.772 691.034M331.436 968.585V915.104M331.436 968.585H360.087M331.436 968.585H18.1903M1 968.585V928.474M1 968.585H18.1903M459.409 777.582V915.104H402.108M459.409 777.582L402.108 771.095M459.409 777.582L457.499 752.751L520.53 746.748M360.087 915.104L358.177 766.121M360.087 915.104H402.108M360.087 915.104L386.827 918.924M360.087 915.104V968.585M360.087 915.104H331.436M360.087 915.104H358.177H331.436M358.177 766.121L402.108 771.095M358.177 766.121V819.602M358.177 766.121V717.278M402.108 915.104V771.095M358.177 819.602H331.436M358.177 819.602V717.278M331.436 819.602V915.104M331.436 819.602L298.966 822.23M1 846.343V928.474M1 846.343L18.1903 844.952M331.436 915.104L18.1903 927.779M1 928.474L18.1903 927.779M661.872 846.343V968.585H638.952M661.872 846.343L547.27 838.6M520.53 836.793V918.924M520.53 836.793L547.27 838.6M520.53 836.793V746.748M520.53 745.431L358.177 717.278M520.53 745.431L525.432 746.281M520.53 745.431V746.748M520.53 918.924H386.827M520.53 918.924H537.72M386.827 918.924L390.647 947.575H415.478M386.827 918.924H537.72M360.087 968.585H415.478M560.64 968.585V947.575H537.72M560.64 968.585H415.478M560.64 968.585H638.952M415.478 947.575V968.585M415.478 947.575H537.72M537.72 918.924V924.654M537.72 947.575V924.654M577.831 414.564L580.618 510.177M577.831 414.564L560.64 407.51M580.618 510.177L560.64 503.133M560.64 407.51V503.133M560.64 407.51L482.329 375.37M560.64 503.133L482.329 475.52M482.329 375.37V475.52M482.329 375.37L457.499 365.18M482.329 475.52L457.499 466.765M457.499 365.18V466.765M457.499 365.18L365.817 327.553M457.499 466.765L365.817 434.438M457.499 648.196L459.409 548.642M457.499 648.196L482.329 653.937M457.499 648.196L369.637 627.881M459.409 548.642L482.329 555.532M459.409 548.642L369.637 521.659M482.329 653.937V555.532M482.329 653.937L560.64 672.044M482.329 555.532L560.64 579.07M580.618 676.663V585.075M580.618 676.663L560.64 672.044M580.618 676.663L642.772 691.034M580.618 585.075L560.64 579.07M580.618 585.075L642.772 603.757M560.64 672.044V579.07M642.772 691.034V603.757M100.131 672.53V579.702M100.131 672.53L79.3115 677.343M100.131 672.53L178.633 654.379M100.131 579.702L79.3115 585.96M100.131 579.702L178.633 556.106M79.3115 677.343V585.96M79.3115 677.343L18.1903 691.475M79.3115 585.96L18.1903 604.332M203.464 648.638V548.642M203.464 648.638L178.633 654.379M203.464 648.638L298.966 626.556M203.464 548.642L178.633 556.106M203.464 548.642L298.966 519.937M178.633 654.379V556.106M298.966 626.556V519.937M369.637 521.659V627.881M298.966 433.201V326.769M298.966 433.201L203.464 465.219M298.966 326.769L203.464 365.963M365.817 327.553V434.438M203.464 465.219V365.963M203.464 465.219L178.633 473.544M203.464 365.963L178.633 376.154M178.633 473.544V376.154M178.633 473.544L100.131 499.862M178.633 376.154L100.131 408.372M100.131 499.862V408.372M100.131 499.862L83.1315 505.562M100.131 408.372L83.1315 415.348M83.1315 505.562V415.348M83.1315 505.562L18.1903 527.334M83.1315 415.348L18.1903 442.001M18.1903 527.334V442.001M18.1903 691.475V604.332M18.1903 844.952V766.961M18.1903 844.952L85.0416 839.542M18.1903 766.961L85.0416 755.368M85.0416 839.542V755.368M85.0416 839.542L100.131 838.321M85.0416 755.368L100.131 752.751M100.131 838.321V752.751M100.131 838.321L178.633 831.968M100.131 752.751L178.633 739.138M178.633 831.968V739.138M178.633 831.968L203.464 829.959M178.633 739.138L203.464 734.832M203.464 829.959V734.832M203.464 829.959L298.966 822.23M203.464 734.832L298.966 718.271M298.966 822.23V718.271M358.177 717.278L344.806 714.959M577.831 741.291L419.298 712.64M577.831 741.291V726.011L423.118 701.18M577.831 741.291L525.432 746.281M419.298 712.64L344.806 714.959M419.298 712.64L423.118 701.18M638.952 968.585V928.474L537.72 924.654M18.1903 927.779V968.585M547.27 838.6V750.068M547.27 750.068L525.432 746.281M457.499 281.061V261.872M457.499 281.061L444.128 274.569M457.499 281.061L543.45 322.794M457.499 261.872L444.128 256.142M457.499 261.872L543.45 307.713V322.794M444.128 256.142V274.569M444.128 256.142L417.388 242.772M417.388 242.772L434.578 237.042M417.388 242.772V177.83H434.578M434.578 237.042L585.471 313.443M434.578 237.042V177.83M585.471 313.443L570.191 321.083L560.64 313.443L559.685 330.677M585.471 313.443V256.142L434.578 177.83M559.685 330.677L543.45 322.794M262.675 253.238V200.751H241.665V263.44M262.675 253.238L241.665 263.44M262.675 253.238L276.045 246.746M276.045 246.746V153H293.235V238.4M276.045 246.746L293.235 238.4M525.432 746.281L520.53 746.748" stroke="#1E1E1E"/>
</svg>
