<svg width="842" height="757" viewBox="0 0 842 757" fill="none" xmlns="http://www.w3.org/2000/svg">
<path d="M842 389.826V445.783L755.815 430.854L739.392 428.01L778.798 424.261V412.783L662.448 394.13H633.001H603.555L593.5 402.739V332.435L622.228 339.07L688.303 354.33L706.977 358.642L765.87 372.244L780.893 375.713L827.636 386.509L842 389.826Z" fill="#D0D2E1"/>
<path d="M345 445.783V389.826L357.928 386.84L403.893 376.225L419.55 372.609L478.587 358.974L497.26 354.661L569.081 338.074L593.5 332.435V402.739L569.081 406.969L497.26 419.409L478.587 422.644L419.55 432.87L408.202 434.835L357.928 443.543L345 445.783Z" fill="#D0D2E1"/>
<path d="M593.5 250.652V184.652L619.355 193.758L688.303 218.042L706.977 224.619L765.87 245.361L780.893 250.652L842 272.174V325.261L827.636 320.948L780.893 306.914L765.87 302.404L706.977 284.722L689.74 279.547L622.228 259.277L593.5 250.652Z" fill="#D0D2E1"/>
<path d="M593.5 184.652V250.652L569.081 257.984L497.26 279.547L478.587 285.153L419.55 302.878L403.893 307.579L357.928 321.379L345 325.261V267.87L357.928 263.54L406.766 247.185L419.55 242.904L478.587 223.134L497.26 216.881L569.081 192.83L593.5 184.652Z" fill="#D0D2E1"/>
<path d="M345 204.739V153.087L525.988 65.3081L541.789 57.6449L551.844 52.7683L564.772 46.4984L593.5 32.5652V102.87L569.081 112.88L497.26 142.322L478.587 149.977L419.55 174.178L406.766 179.419L357.928 199.44L345 204.739Z" fill="#D0D2E1"/>
<path d="M842 153.087V204.739L778.798 178.83L765.87 173.531L706.977 149.388L688.303 141.733L619.355 113.469L593.5 102.87V32.5652L678.249 73.668L688.303 78.5446L752.942 109.894L765.152 115.816L842 153.087Z" fill="#D0D2E1"/>
<path d="M842 445.783V503.174L755.815 497.357V430.854L842 445.783Z" fill="#154667"/>
<path d="M497.26 490.866V419.409L569.081 406.969V485.061L497.26 490.866Z" fill="#154667"/>
<path d="M419.55 497.148V432.87L478.587 422.644V492.376L419.55 497.148Z" fill="#154667"/>
<path d="M357.928 502.129V443.543L408.202 434.835V498.065L357.928 502.129Z" fill="#154667"/>
<path d="M403.893 307.579V376.225L357.928 386.84V321.379L403.893 307.579Z" fill="#154667"/>
<path d="M419.55 372.609V302.878L478.587 285.153V358.974L419.55 372.609Z" fill="#154667"/>
<path d="M497.26 354.661V279.547L569.081 257.984V338.074L497.26 354.661Z" fill="#154667"/>
<path d="M689.74 279.547L688.303 354.33L622.228 339.07V259.277L689.74 279.547Z" fill="#154667"/>
<path d="M706.977 358.642V284.722L765.87 302.404V372.244L706.977 358.642Z" fill="#154667"/>
<path d="M780.893 375.713V306.914L827.636 320.948V386.509L780.893 375.713Z" fill="#154667"/>
<path d="M842 204.739V272.174L780.893 250.652L778.798 178.83L842 204.739Z" fill="#154667"/>
<path d="M765.87 173.531V245.361L706.977 224.619V149.388L765.87 173.531Z" fill="#154667"/>
<path d="M688.303 141.733V218.042L619.355 193.758V113.469L688.303 141.733Z" fill="#154667"/>
<path d="M569.081 112.88V192.83L497.26 216.881V142.322L569.081 112.88Z" fill="#154667"/>
<path d="M478.587 149.977V223.134L419.55 242.904V174.178L478.587 149.977Z" fill="#154667"/>
<path d="M406.766 179.419V247.185L357.928 263.54V199.44L406.766 179.419Z" fill="#154667"/>
<path d="M593.5 554.826V595H357.928V564.347L593.5 554.826Z" fill="#334654"/>
<path d="M765.87 595V579.217H748.633V562L824.763 564.87V595H765.87Z" fill="#334654"/>
<path fill-rule="evenodd" clip-rule="evenodd" d="M593.5 554.826H613.61H615.046V595H593.5V554.826Z" fill="#334654"/>
<path d="M593.5 483.087V554.826L357.928 564.347L345 564.87V503.174L357.928 502.129L408.202 498.065L419.55 497.148L478.587 492.376L497.26 490.866L569.081 485.061L593.5 483.087Z" fill="#D0D2E1"/>
<path fill-rule="evenodd" clip-rule="evenodd" d="M646.647 446.649L689.74 451.522L688.303 432.87L735.705 428.36V427.371L613.61 406.222V442.913L646.647 446.649Z" fill="#324049"/>
<path d="M689.74 554.826V451.522L688.303 432.87L735.705 428.36V496V557.696H635.156L615.046 554.826H646.647H689.74Z" fill="#FCFCFF"/>
<path d="M603.555 404.481L593.5 402.739L603.555 394.13H633.001H662.448L659.575 402.739L603.555 404.481Z" fill="#FFFEFF"/>
<path d="M778.798 424.261L659.575 402.739L662.448 394.13L778.798 412.783V424.261Z" fill="#FFFEFF"/>
<path d="M615.046 554.826L635.156 557.696L638.029 579.217H656.702V595H615.046V554.826Z" fill="#D1D3E1"/>
<path d="M593.5 402.739V483.087L569.081 485.061V406.969L593.5 402.739Z" fill="#324049"/>
<path d="M593.5 483.087V402.739L603.555 404.481L613.61 406.222V442.913V483.087H593.5Z" fill="#324049"/>
<path d="M478.587 492.376V422.644L497.26 419.409V490.866L478.587 492.376Z" fill="#324049"/>
<path d="M408.202 498.065V434.835L419.55 432.87V497.148L408.202 498.065Z" fill="#324049"/>
<path d="M345 503.174V445.783L357.928 443.543V502.129L345 503.174Z" fill="#324049"/>
<path d="M755.815 497.357L735.705 496V428.36L739.392 428.01L755.815 430.854V497.357Z" fill="#324049"/>
<path d="M593.5 332.435V250.652L622.228 259.277V339.07L593.5 332.435Z" fill="#324049"/>
<path d="M593.5 250.652V332.435L569.081 338.074V257.984L593.5 250.652Z" fill="#324049"/>
<path d="M419.55 174.178V242.904L406.766 247.185V179.419L419.55 174.178Z" fill="#324049"/>
<path d="M345 267.87V204.739L357.928 199.44V263.54L345 267.87Z" fill="#324049"/>
<path d="M345 389.826V325.261L357.928 321.379V386.84L345 389.826Z" fill="#324049"/>
<path d="M419.55 302.878V372.609L403.893 376.225V307.579L419.55 302.878Z" fill="#324049"/>
<path d="M497.26 279.547V354.661L478.587 358.974V285.153L497.26 279.547Z" fill="#324049"/>
<path d="M688.303 354.33L689.74 279.547L706.977 284.722V358.642L688.303 354.33Z" fill="#324049"/>
<path d="M780.893 306.914V375.713L765.87 372.244V302.404L780.893 306.914Z" fill="#324049"/>
<path d="M842 325.261V389.826L827.636 386.509V320.948L842 325.261Z" fill="#324049"/>
<path d="M778.798 178.83L780.893 250.652L765.87 245.361V173.531L778.798 178.83Z" fill="#324049"/>
<path d="M706.977 149.388V224.619L688.303 218.042V141.733L706.977 149.388Z" fill="#324049"/>
<path d="M593.5 184.652V102.87L619.355 113.469V193.758L593.5 184.652Z" fill="#324049"/>
<path d="M593.5 102.87V184.652L569.081 192.83V112.88L593.5 102.87Z" fill="#324049"/>
<path d="M497.26 142.322V216.881L478.587 223.134V149.977L497.26 142.322Z" fill="#324049"/>
<path d="M688.303 64.1304L678.249 59.8261L658.139 49.7826L671.066 45.4783L784.543 102.87L773.052 108.609L765.87 102.87L765.152 115.816L752.942 109.894V98.5652L688.303 64.1304Z" fill="#3A545F"/>
<path d="M688.303 64.1304V78.5446L678.249 73.668V59.8261L688.303 64.1304Z" fill="#3A545F"/>
<path d="M671.066 45.4783L658.139 49.7826V1H671.066V45.4783Z" fill="#CAD1DB"/>
<path d="M784.543 102.87L671.066 45.4783V1L784.543 59.8261V102.87Z" fill="#EBECF1"/>
<path d="M842 503.174V595H824.763V564.87L748.633 562V557.696H735.705V496L755.815 497.357L842 503.174Z" fill="#D0D2E1"/>
<path d="M689.74 451.522V554.826H646.647V446.649L689.74 451.522Z" fill="#154667"/>
<path d="M615.046 554.826L613.61 442.913L646.647 446.649V554.826H615.046Z" fill="#154667"/>
<path d="M613.61 442.913L615.046 554.826H613.61H593.5V483.087H613.61V442.913Z" fill="#D0D2E1"/>
<path d="M735.705 427.371L613.61 406.222L603.555 404.481L659.575 402.739L778.798 424.261L739.392 428.01L735.705 427.371Z" fill="#FCFCFF"/>
<path d="M345 595V564.87L357.928 564.347V595H345Z" fill="#D0D2E1"/>
<path d="M635.156 557.696H735.705H748.633V562V579.217H656.702H638.029L635.156 557.696Z" fill="#D0D2E1"/>
<path d="M765.87 579.217V595H656.702V579.217H748.633H765.87Z" fill="#D0D2E1"/>
<path d="M842 204.739V153.087M842 204.739L778.798 178.83M842 204.739V272.174M593.5 102.87V32.5652M593.5 102.87V595M593.5 102.87L569.081 112.88M593.5 102.87L619.355 113.469M593.5 102.87V184.652M345 204.739V153.087M345 204.739L357.928 199.44M345 204.739V267.87M345 153.087V595M345 153.087L525.988 65.3081L541.789 57.6449L551.844 52.7683L564.772 46.4984L593.5 32.5652M593.5 32.5652L678.249 73.668M842 153.087V445.783M842 153.087L765.152 115.816M593.5 184.652V250.652M593.5 184.652L569.081 192.83M593.5 184.652L619.355 193.758M593.5 250.652L569.081 257.984M593.5 250.652L622.228 259.277M593.5 250.652V332.435M345 325.261V267.87M345 325.261L357.928 321.379M345 325.261V389.826M345 267.87L357.928 263.54M842 272.174V325.261M842 272.174L780.893 250.652M842 325.261L827.636 320.948M842 325.261V389.826M842 445.783V389.826M842 445.783V503.174M842 445.783L755.815 430.854M593.5 402.739V483.087M593.5 402.739L569.081 406.969M593.5 402.739L603.555 404.481M593.5 402.739L603.555 394.13H633.001H662.448M593.5 402.739V332.435M345 445.783V389.826M345 445.783V503.174M345 445.783L357.928 443.543M345 389.826L357.928 386.84M593.5 332.435L569.081 338.074M593.5 332.435L622.228 339.07M842 389.826L827.636 386.509M593.5 595V554.826M593.5 595H615.046M593.5 595H357.928M345 595V564.87M345 595H357.928M689.74 451.522V554.826H646.647M689.74 451.522L646.647 446.649M689.74 451.522L688.303 432.87L735.705 428.36M615.046 554.826L613.61 442.913M615.046 554.826H646.647M615.046 554.826L635.156 557.696M615.046 554.826V595M615.046 554.826H593.5M615.046 554.826H613.61H593.5M613.61 442.913L646.647 446.649M613.61 442.913V483.087M613.61 442.913V406.222M646.647 554.826V446.649M613.61 483.087H593.5M613.61 483.087V406.222M593.5 483.087V554.826M593.5 483.087L569.081 485.061M345 503.174V564.87M345 503.174L357.928 502.129M593.5 554.826L357.928 564.347M345 564.87L357.928 564.347M842 503.174V595H824.763M842 503.174L755.815 497.357M735.705 496V557.696M735.705 496L755.815 497.357M735.705 496V428.36M735.705 427.371L613.61 406.222M735.705 427.371L739.392 428.01M735.705 427.371V428.36M735.705 557.696H635.156M735.705 557.696H748.633M635.156 557.696L638.029 579.217H656.702M635.156 557.696H748.633M615.046 595H656.702M765.87 595V579.217H748.633M765.87 595H656.702M765.87 595H824.763M656.702 579.217V595M656.702 579.217H748.633M748.633 557.696V562M748.633 579.217V562M778.798 178.83L780.893 250.652M778.798 178.83L765.87 173.531M780.893 250.652L765.87 245.361M765.87 173.531V245.361M765.87 173.531L706.977 149.388M765.87 245.361L706.977 224.619M706.977 149.388V224.619M706.977 149.388L688.303 141.733M706.977 224.619L688.303 218.042M688.303 141.733V218.042M688.303 141.733L619.355 113.469M688.303 218.042L619.355 193.758M688.303 354.33L689.74 279.547M688.303 354.33L706.977 358.642M688.303 354.33L622.228 339.07M689.74 279.547L706.977 284.722M689.74 279.547L622.228 259.277M706.977 358.642V284.722M706.977 358.642L765.87 372.244M706.977 284.722L765.87 302.404M780.893 375.713V306.914M780.893 375.713L765.87 372.244M780.893 375.713L827.636 386.509M780.893 306.914L765.87 302.404M780.893 306.914L827.636 320.948M765.87 372.244V302.404M827.636 386.509V320.948M419.55 372.609V302.878M419.55 372.609L403.893 376.225M419.55 372.609L478.587 358.974M419.55 302.878L403.893 307.579M419.55 302.878L478.587 285.153M403.893 376.225V307.579M403.893 376.225L357.928 386.84M403.893 307.579L357.928 321.379M497.26 354.661V279.547M497.26 354.661L478.587 358.974M497.26 354.661L569.081 338.074M497.26 279.547L478.587 285.153M497.26 279.547L569.081 257.984M478.587 358.974V285.153M569.081 338.074V257.984M622.228 259.277V339.07M569.081 192.83V112.88M569.081 192.83L497.26 216.881M569.081 112.88L497.26 142.322M619.355 113.469V193.758M497.26 216.881V142.322M497.26 216.881L478.587 223.134M497.26 142.322L478.587 149.977M478.587 223.134V149.977M478.587 223.134L419.55 242.904M478.587 149.977L419.55 174.178M419.55 242.904V174.178M419.55 242.904L406.766 247.185M419.55 174.178L406.766 179.419M406.766 247.185V179.419M406.766 247.185L357.928 263.54M406.766 179.419L357.928 199.44M357.928 263.54V199.44M357.928 386.84V321.379M357.928 502.129V443.543M357.928 502.129L408.202 498.065M357.928 443.543L408.202 434.835M408.202 498.065V434.835M408.202 498.065L419.55 497.148M408.202 434.835L419.55 432.87M419.55 497.148V432.87M419.55 497.148L478.587 492.376M419.55 432.87L478.587 422.644M478.587 492.376V422.644M478.587 492.376L497.26 490.866M478.587 422.644L497.26 419.409M497.26 490.866V419.409M497.26 490.866L569.081 485.061M497.26 419.409L569.081 406.969M569.081 485.061V406.969M613.61 406.222L603.555 404.481M778.798 424.261L659.575 402.739M778.798 424.261V412.783L662.448 394.13M778.798 424.261L739.392 428.01M659.575 402.739L603.555 404.481M659.575 402.739L662.448 394.13M824.763 595V564.87L748.633 562M357.928 564.347V595M755.815 497.357V430.854M755.815 430.854L739.392 428.01M688.303 78.5446V64.1304M688.303 78.5446L678.249 73.668M688.303 78.5446L752.942 109.894M688.303 64.1304L678.249 59.8261M688.303 64.1304L752.942 98.5652V109.894M678.249 59.8261V73.668M678.249 59.8261L658.139 49.7826M658.139 49.7826L671.066 45.4783M658.139 49.7826V1H671.066M671.066 45.4783L784.543 102.87M671.066 45.4783V1M784.543 102.87L773.052 108.609L765.87 102.87L765.152 115.816M784.543 102.87V59.8261L671.066 1M765.152 115.816L752.942 109.894M739.392 428.01L735.705 428.36" stroke="#1E1E1E"/>
<path d="M1 495.87V567.087L110.595 548.087L131.48 544.467L81.3699 539.696V525.087L229.324 501.348H266.769H304.214L317 512.304V422.826L280.468 431.27L196.445 450.692L172.699 456.181L97.8092 473.492L78.7049 477.908L19.2659 491.647L1 495.87Z" fill="#D0D2E1"/>
<path d="M633 567.087V495.87L616.561 492.07L558.11 478.559L538.2 473.956L463.127 456.603L439.381 451.115L348.052 430.004L317 422.826V512.304L348.052 517.688L439.381 533.521L463.127 537.637L538.2 550.652L552.63 553.154L616.561 564.237L633 567.087Z" fill="#D0D2E1"/>
<path d="M317 318.739V234.739L284.121 246.329L196.445 277.235L172.699 285.606L97.8092 312.005L78.7049 318.739L1 346.13V413.696L19.2659 408.207L78.7049 390.346L97.8092 384.605L172.699 362.101L194.618 355.514L280.468 329.717L317 318.739Z" fill="#D0D2E1"/>
<path d="M317 234.739V318.739L348.052 328.07L439.381 355.514L463.127 362.65L538.2 385.209L558.11 391.191L616.561 408.756L633 413.696V340.652L616.561 335.142L554.457 314.327L538.2 308.878L463.127 283.716L439.381 275.757L348.052 245.147L317 234.739Z" fill="#D0D2E1"/>
<path d="M633 260.304V194.565L402.85 82.8467L382.757 73.0935L369.971 66.8869L353.532 58.907L317 41.1739V130.652L348.052 143.393L439.381 180.864L463.127 190.607L538.2 221.409L554.457 228.079L616.561 253.559L633 260.304Z" fill="#D0D2E1"/>
<path d="M1 194.565V260.304L81.3699 227.329L97.8092 220.584L172.699 189.858L196.445 180.115L284.121 144.142L317 130.652V41.1739L209.231 93.4866L196.445 99.6931L114.249 139.593L98.7225 147.129L1 194.565Z" fill="#D0D2E1"/>
<path d="M1 567.087V640.13L110.595 632.727V548.087L1 567.087Z" fill="#154667"/>
<path d="M439.381 624.466V533.521L348.052 517.688V617.077L439.381 624.466Z" fill="#154667"/>
<path d="M538.2 632.461V550.652L463.127 537.637V626.387L538.2 632.461Z" fill="#154667"/>
<path d="M616.561 638.8V564.237L552.63 553.154V633.628L616.561 638.8Z" fill="#154667"/>
<path d="M558.11 391.191V478.559L616.561 492.07V408.756L558.11 391.191Z" fill="#154667"/>
<path d="M538.2 473.956V385.209L463.127 362.65V456.603L538.2 473.956Z" fill="#154667"/>
<path d="M439.381 451.115V355.514L348.052 328.07V430.004L439.381 451.115Z" fill="#154667"/>
<path d="M194.618 355.514L196.445 450.692L280.468 431.27V329.717L194.618 355.514Z" fill="#154667"/>
<path d="M172.699 456.181V362.101L97.8092 384.605V473.492L172.699 456.181Z" fill="#154667"/>
<path d="M78.7049 477.908V390.346L19.2659 408.207V491.647L78.7049 477.908Z" fill="#154667"/>
<path d="M1 260.304V346.13L78.7049 318.739L81.3699 227.329L1 260.304Z" fill="#154667"/>
<path d="M97.8092 220.584V312.005L172.699 285.606V189.858L97.8092 220.584Z" fill="#154667"/>
<path d="M196.445 180.115V277.235L284.121 246.329V144.142L196.445 180.115Z" fill="#154667"/>
<path d="M348.052 143.393V245.147L439.381 275.757V180.864L348.052 143.393Z" fill="#154667"/>
<path d="M463.127 190.607V283.716L538.2 308.878V221.409L463.127 190.607Z" fill="#154667"/>
<path d="M554.457 228.079V314.327L616.561 335.142V253.559L554.457 228.079Z" fill="#154667"/>
<path d="M317 705.87V757H616.561V717.987L317 705.87Z" fill="#334654"/>
<path d="M97.8092 757V736.913H119.728V715L22.9191 718.652V757H97.8092Z" fill="#334654"/>
<path fill-rule="evenodd" clip-rule="evenodd" d="M317 705.87H291.428H289.601V757H317V705.87Z" fill="#334654"/>
<path d="M317 614.565V705.87L616.561 717.987L633 718.652V640.13L616.561 638.8L552.63 633.628L538.2 632.461L463.127 626.387L439.381 624.466L348.052 617.077L317 614.565Z" fill="#D0D2E1"/>
<path fill-rule="evenodd" clip-rule="evenodd" d="M249.416 568.189L194.618 574.391L196.445 550.652L136.168 544.913V543.654L291.428 516.738V563.435L249.416 568.189Z" fill="#324049"/>
<path d="M194.618 705.87V574.391L196.445 550.652L136.168 544.913V631V709.522H264.029L289.601 705.87H249.416H194.618Z" fill="#FCFCFF"/>
<path d="M304.214 514.521L317 512.304L304.214 501.348H266.769H229.324L232.977 512.304L304.214 514.521Z" fill="#FFFEFF"/>
<path d="M81.3699 539.696L232.977 512.304L229.324 501.348L81.3699 525.087V539.696Z" fill="#FFFEFF"/>
<path d="M289.601 705.87L264.029 709.522L260.376 736.913H236.63V757H289.601V705.87Z" fill="#D1D3E1"/>
<path d="M317 512.304V614.565L348.052 617.077V517.688L317 512.304Z" fill="#324049"/>
<path d="M317 614.565V512.304L304.214 514.521L291.428 516.738V563.435V614.565H317Z" fill="#324049"/>
<path d="M463.127 626.387V537.637L439.381 533.521V624.466L463.127 626.387Z" fill="#324049"/>
<path d="M552.63 633.628V553.154L538.2 550.652V632.461L552.63 633.628Z" fill="#324049"/>
<path d="M633 640.13V567.087L616.561 564.237V638.8L633 640.13Z" fill="#324049"/>
<path d="M110.595 632.727L136.168 631V544.913L131.48 544.467L110.595 548.087V632.727Z" fill="#324049"/>
<path d="M317 422.826V318.739L280.468 329.717V431.27L317 422.826Z" fill="#324049"/>
<path d="M317 318.739V422.826L348.052 430.004V328.07L317 318.739Z" fill="#324049"/>
<path d="M538.2 221.409V308.878L554.457 314.327V228.079L538.2 221.409Z" fill="#324049"/>
<path d="M633 340.652V260.304L616.561 253.559V335.142L633 340.652Z" fill="#324049"/>
<path d="M633 495.87V413.696L616.561 408.756V492.07L633 495.87Z" fill="#324049"/>
<path d="M538.2 385.209V473.956L558.11 478.559V391.191L538.2 385.209Z" fill="#324049"/>
<path d="M439.381 355.514V451.115L463.127 456.603V362.65L439.381 355.514Z" fill="#324049"/>
<path d="M196.445 450.692L194.618 355.514L172.699 362.101V456.181L196.445 450.692Z" fill="#324049"/>
<path d="M78.7049 390.346V477.908L97.8092 473.492V384.605L78.7049 390.346Z" fill="#324049"/>
<path d="M1 413.696V495.87L19.2659 491.647V408.207L1 413.696Z" fill="#324049"/>
<path d="M81.3699 227.329L78.7049 318.739L97.8092 312.005V220.584L81.3699 227.329Z" fill="#324049"/>
<path d="M172.699 189.858V285.606L196.445 277.235V180.115L172.699 189.858Z" fill="#324049"/>
<path d="M317 234.739V130.652L284.121 144.142V246.329L317 234.739Z" fill="#324049"/>
<path d="M317 130.652V234.739L348.052 245.147V143.393L317 130.652Z" fill="#324049"/>
<path d="M439.381 180.864V275.757L463.127 283.716V190.607L439.381 180.864Z" fill="#324049"/>
<path d="M196.445 81.3478L209.231 75.8696L234.803 63.087L218.364 57.6087L74.0636 130.652L88.6763 137.957L97.8092 130.652L98.7225 147.129L114.249 139.593V125.174L196.445 81.3478Z" fill="#3A545F"/>
<path d="M196.445 81.3478V99.6931L209.231 93.4866V75.8696L196.445 81.3478Z" fill="#3A545F"/>
<path d="M218.364 57.6087L234.803 63.087V1H218.364V57.6087Z" fill="#CAD1DB"/>
<path d="M74.0636 130.652L218.364 57.6087V1L74.0636 75.8696V130.652Z" fill="#EBECF1"/>
<path d="M1 640.13V757H22.9191V718.652L119.728 715V709.522H136.168V631L110.595 632.727L1 640.13Z" fill="#D0D2E1"/>
<path d="M194.618 574.391V705.87H249.416V568.189L194.618 574.391Z" fill="#154667"/>
<path d="M289.601 705.87L291.428 563.435L249.416 568.189V705.87H289.601Z" fill="#154667"/>
<path d="M291.428 563.435L289.601 705.87H291.428H317V614.565H291.428V563.435Z" fill="#D0D2E1"/>
<path d="M136.168 543.654L291.428 516.738L304.214 514.521L232.977 512.304L81.3699 539.696L131.48 544.467L136.168 543.654Z" fill="#FCFCFF"/>
<path d="M633 757V718.652L616.561 717.987V757H633Z" fill="#D0D2E1"/>
<path d="M264.029 709.522H136.168H119.728V715V736.913H236.63H260.376L264.029 709.522Z" fill="#D0D2E1"/>
<path d="M97.8092 736.913V757H236.63V736.913H119.728H97.8092Z" fill="#D0D2E1"/>
<path d="M1 260.304V194.565M1 260.304L81.3699 227.329M1 260.304V346.13M317 130.652V41.1739M317 130.652V757M317 130.652L348.052 143.393M317 130.652L284.121 144.142M317 130.652V234.739M633 260.304V194.565M633 260.304L616.561 253.559M633 260.304V340.652M633 194.565V757M633 194.565L402.85 82.8467L382.757 73.0935L369.971 66.8869L353.532 58.907L317 41.1739M317 41.1739L209.231 93.4866M1 194.565V567.087M1 194.565L98.7225 147.129M317 234.739V318.739M317 234.739L348.052 245.147M317 234.739L284.121 246.329M317 318.739L348.052 328.07M317 318.739L280.468 329.717M317 318.739V422.826M633 413.696V340.652M633 413.696L616.561 408.756M633 413.696V495.87M633 340.652L616.561 335.142M1 346.13V413.696M1 346.13L78.7049 318.739M1 413.696L19.2659 408.207M1 413.696V495.87M1 567.087V495.87M1 567.087V640.13M1 567.087L110.595 548.087M317 512.304V614.565M317 512.304L348.052 517.688M317 512.304L304.214 514.521M317 512.304L304.214 501.348H266.769H229.324M317 512.304V422.826M633 567.087V495.87M633 567.087V640.13M633 567.087L616.561 564.237M633 495.87L616.561 492.07M317 422.826L348.052 430.004M317 422.826L280.468 431.27M1 495.87L19.2659 491.647M317 757V705.87M317 757H289.601M317 757H616.561M633 757V718.652M633 757H616.561M194.618 574.391V705.87H249.416M194.618 574.391L249.416 568.189M194.618 574.391L196.445 550.652L136.168 544.913M289.601 705.87L291.428 563.435M289.601 705.87H249.416M289.601 705.87L264.029 709.522M289.601 705.87V757M289.601 705.87H317M289.601 705.87H291.428H317M291.428 563.435L249.416 568.189M291.428 563.435V614.565M291.428 563.435V516.738M249.416 705.87V568.189M291.428 614.565H317M291.428 614.565V516.738M317 614.565V705.87M317 614.565L348.052 617.077M633 640.13V718.652M633 640.13L616.561 638.8M317 705.87L616.561 717.987M633 718.652L616.561 717.987M1 640.13V757H22.9191M1 640.13L110.595 632.727M136.168 631V709.522M136.168 631L110.595 632.727M136.168 631V544.913M136.168 543.654L291.428 516.738M136.168 543.654L131.48 544.467M136.168 543.654V544.913M136.168 709.522H264.029M136.168 709.522H119.728M264.029 709.522L260.376 736.913H236.63M264.029 709.522H119.728M289.601 757H236.63M97.8092 757V736.913H119.728M97.8092 757H236.63M97.8092 757H22.9191M236.63 736.913V757M236.63 736.913H119.728M119.728 709.522V715M119.728 736.913V715M81.3699 227.329L78.7049 318.739M81.3699 227.329L97.8092 220.584M78.7049 318.739L97.8092 312.005M97.8092 220.584V312.005M97.8092 220.584L172.699 189.858M97.8092 312.005L172.699 285.606M172.699 189.858V285.606M172.699 189.858L196.445 180.115M172.699 285.606L196.445 277.235M196.445 180.115V277.235M196.445 180.115L284.121 144.142M196.445 277.235L284.121 246.329M196.445 450.692L194.618 355.514M196.445 450.692L172.699 456.181M196.445 450.692L280.468 431.27M194.618 355.514L172.699 362.101M194.618 355.514L280.468 329.717M172.699 456.181V362.101M172.699 456.181L97.8092 473.492M172.699 362.101L97.8092 384.605M78.7049 477.908V390.346M78.7049 477.908L97.8092 473.492M78.7049 477.908L19.2659 491.647M78.7049 390.346L97.8092 384.605M78.7049 390.346L19.2659 408.207M97.8092 473.492V384.605M19.2659 491.647V408.207M538.2 473.956V385.209M538.2 473.956L558.11 478.559M538.2 473.956L463.127 456.603M538.2 385.209L558.11 391.191M538.2 385.209L463.127 362.65M558.11 478.559V391.191M558.11 478.559L616.561 492.07M558.11 391.191L616.561 408.756M439.381 451.115V355.514M439.381 451.115L463.127 456.603M439.381 451.115L348.052 430.004M439.381 355.514L463.127 362.65M439.381 355.514L348.052 328.07M463.127 456.603V362.65M348.052 430.004V328.07M280.468 329.717V431.27M348.052 245.147V143.393M348.052 245.147L439.381 275.757M348.052 143.393L439.381 180.864M284.121 144.142V246.329M439.381 275.757V180.864M439.381 275.757L463.127 283.716M439.381 180.864L463.127 190.607M463.127 283.716V190.607M463.127 283.716L538.2 308.878M463.127 190.607L538.2 221.409M538.2 308.878V221.409M538.2 308.878L554.457 314.327M538.2 221.409L554.457 228.079M554.457 314.327V228.079M554.457 314.327L616.561 335.142M554.457 228.079L616.561 253.559M616.561 335.142V253.559M616.561 492.07V408.756M616.561 638.8V564.237M616.561 638.8L552.63 633.628M616.561 564.237L552.63 553.154M552.63 633.628V553.154M552.63 633.628L538.2 632.461M552.63 553.154L538.2 550.652M538.2 632.461V550.652M538.2 632.461L463.127 626.387M538.2 550.652L463.127 537.637M463.127 626.387V537.637M463.127 626.387L439.381 624.466M463.127 537.637L439.381 533.521M439.381 624.466V533.521M439.381 624.466L348.052 617.077M439.381 533.521L348.052 517.688M348.052 617.077V517.688M291.428 516.738L304.214 514.521M81.3699 539.696L232.977 512.304M81.3699 539.696V525.087L229.324 501.348M81.3699 539.696L131.48 544.467M232.977 512.304L304.214 514.521M232.977 512.304L229.324 501.348M22.9191 757V718.652L119.728 715M616.561 717.987V757M110.595 632.727V548.087M110.595 548.087L131.48 544.467M196.445 99.6931V81.3478M196.445 99.6931L209.231 93.4866M196.445 99.6931L114.249 139.593M196.445 81.3478L209.231 75.8696M196.445 81.3478L114.249 125.174V139.593M209.231 75.8696V93.4866M209.231 75.8696L234.803 63.087M234.803 63.087L218.364 57.6087M234.803 63.087V1H218.364M218.364 57.6087L74.0636 130.652M218.364 57.6087V1M74.0636 130.652L88.6763 137.957L97.8092 130.652L98.7225 147.129M74.0636 130.652V75.8696L218.364 1M98.7225 147.129L114.249 139.593M131.48 544.467L136.168 544.913" stroke="#1E1E1E"/>
</svg>
